<svg width="50" height="50" viewBox="0 0 50 50" fill="none" xmlns="http://www.w3.org/2000/svg">
<rect width="50" height="50" rx="5" fill="black"/>
<path d="M20.8674 7C13.2168 7 7 13.2488 7 20.9388C7 28.6288 13.2168 34.8776 20.8674 34.8776C23.8946 34.8776 26.6923 33.8975 28.9738 32.2384L39.7058 43L42 40.694L31.3955 30.0093C33.4794 27.5687 34.7349 24.4011 34.7349 20.9388C34.7349 13.2488 28.5181 7 20.8674 7ZM20.8674 8.63986C27.6355 8.63986 33.1034 14.1359 33.1034 20.9388C33.1034 27.7416 27.6355 33.2377 20.8674 33.2377C14.0994 33.2377 8.63146 27.7416 8.63146 20.9388C8.63146 14.1359 14.0994 8.63986 20.8674 8.63986Z" fill="white"/>
</svg>

