<svg width="184" height="184" viewBox="0 0 184 184" fill="none" xmlns="http://www.w3.org/2000/svg">
<path d="M92 46C100.468 46 107.333 39.135 107.333 30.6667C107.333 22.1983 100.468 15.3333 92 15.3333C83.5316 15.3333 76.6666 22.1983 76.6666 30.6667C76.6666 39.135 83.5316 46 92 46Z" fill="#DBE902"/>
<path d="M145.667 99.6667V84.3333C133.86 84.4867 121.977 78.5833 114.463 70.3033L104.573 59.34C103.27 57.8833 101.66 56.7333 99.8967 55.89C99.82 55.89 99.82 55.8133 99.7434 55.8133H99.6667C96.9834 54.28 93.9167 53.5133 90.5434 53.82C82.4934 54.51 76.6667 61.64 76.6667 69.69V115C76.6667 123.433 83.5667 130.333 92 130.333H130.333V168.667H145.667V126.5C145.667 118.067 138.767 111.167 130.333 111.167H107.333V84.7167C117.223 92.92 132.25 99.59 145.667 99.6667ZM98.3634 138C95.22 146.893 86.71 153.333 76.6667 153.333C63.94 153.333 53.6667 143.06 53.6667 130.333C53.6667 120.29 60.1067 111.857 69 108.637V92.7667C51.52 96.2933 38.3334 111.78 38.3334 130.333C38.3334 151.493 55.5067 168.667 76.6667 168.667C95.22 168.667 110.707 155.48 114.233 138H98.3634Z" fill="#DBE902"/>
</svg>
